<svg id="visual" viewBox="0 0 900 450" width="900" height="450" xmlns="http://www.w3.org/2000/svg" xmlns:xlink="http://www.w3.org/1999/xlink" version="1.1"><rect x="0" y="0" width="900" height="450" fill="#e4edf2"></rect><path d="M110 0L108 3.3C106 6.7 102 13.3 102.2 20.2C102.3 27 106.7 34 101.2 40.8C95.7 47.7 80.3 54.3 76.2 61.2C72 68 79 75 86 81.8C93 88.7 100 95.3 102.3 102.2C104.7 109 102.3 116 98.8 122.8C95.3 129.7 90.7 136.3 85.5 143.2C80.3 150 74.7 157 74.2 163.8C73.7 170.7 78.3 177.3 78 184.2C77.7 191 72.3 198 75 204.8C77.7 211.7 88.3 218.3 94.3 225C100.3 231.7 101.7 238.3 101.7 245.2C101.7 252 100.3 259 100.3 265.8C100.3 272.7 101.7 279.3 100 286.2C98.3 293 93.7 300 90 306.8C86.3 313.7 83.7 320.3 82.7 327.2C81.7 334 82.3 341 79.7 347.8C77 354.7 71 361.3 76.5 368.2C82 375 99 382 102 388.8C105 395.7 94 402.3 90 409.2C86 416 89 423 89.7 429.8C90.3 436.7 88.7 443.3 87.8 446.7L87 450L0 450L0 446.7C0 443.3 0 436.7 0 429.8C0 423 0 416 0 409.2C0 402.3 0 395.7 0 388.8C0 382 0 375 0 368.2C0 361.3 0 354.7 0 347.8C0 341 0 334 0 327.2C0 320.3 0 313.7 0 306.8C0 300 0 293 0 286.2C0 279.3 0 272.7 0 265.8C0 259 0 252 0 245.2C0 238.3 0 231.7 0 225C0 218.3 0 211.7 0 204.8C0 198 0 191 0 184.2C0 177.3 0 170.7 0 163.8C0 157 0 150 0 143.2C0 136.3 0 129.7 0 122.8C0 116 0 109 0 102.2C0 95.3 0 88.7 0 81.8C0 75 0 68 0 61.2C0 54.3 0 47.7 0 40.8C0 34 0 27 0 20.2C0 13.3 0 6.7 0 3.3L0 0Z" fill="#2676ee" stroke-linecap="round" stroke-linejoin="miter"></path></svg>